<?xml version="1.0" encoding="UTF-8"?>
<!DOCTYPE svg PUBLIC "-//W3C//DTD SVG 1.1//EN" "http://www.w3.org/Graphics/SVG/1.1/DTD/svg11.dtd">
<!-- Creator: CorelDRAW -->
<svg xmlns="http://www.w3.org/2000/svg" xml:space="preserve" width="2048px" height="2048px" style="shape-rendering:geometricPrecision; text-rendering:geometricPrecision; image-rendering:optimizeQuality; fill-rule:evenodd; clip-rule:evenodd"
viewBox="0 0 2048 2048"
 xmlns:xlink="http://www.w3.org/1999/xlink">
 <defs>
  <style type="text/css">
   <![CDATA[
    .fil0 {fill:none}
    .fil4 {fill:#558B2F;fill-rule:nonzero}
    .fil2 {fill:#689F38;fill-rule:nonzero}
    .fil1 {fill:#757575;fill-rule:nonzero}
    .fil3 {fill:#7CB342;fill-rule:nonzero}
   ]]>
  </style>
 </defs>
 <g id="Layer_x0020_1">
  <metadata id="CorelCorpID_0Corel-Layer"/>
  <rect class="fil0" width="2048" height="2048"/>
  <rect class="fil0" x="255.999" y="255.999" width="1536" height="1536"/>
  <rect class="fil0" x="255.999" y="255.999" width="1536" height="1536"/>
  <path class="fil1" d="M606.684 738.044c578.1,150.763 157.228,857.642 731.209,977.992l-5.14607 59.6658c-596.624,-53.6351 -191.968,-812.464 -740.423,-979.092 -1.2626,-0.483071 -2.09882,-0.799607 -7.40197,-2.87953l21.7618 -55.6867z"/>
  <path class="fil2" d="M1332.75 825.043l0.00354331 0 1.11732 0.00708662c80.582,0.301181 153.617,33.189 206.574,86.1449 53.2004,53.2028 86.152,126.666 86.152,207.691 0,23.3327 -2.75197,46.0748 -7.94528,67.917 -5.27599,22.1894 -13.1669,43.5555 -23.3315,63.7548l-235.658 485.954 -26.8099 55.2839 -0.0992127 0.204331 -0.00236221 -0.00472441 0 -557.03 0.00354331 0 0.68504 -0.00472441c31.7244,-0.184252 60.4819,-13.1681 81.3556,-34.0394 21.0248,-21.026 34.0488,-50.0445 34.0488,-82.0359 0,-31.9973 -13.0217,-61.0217 -34.0465,-82.0465 -20.8205,-20.8205 -49.4859,-33.7914 -81.1134,-34.0418l-0.929528 -0.00590552 -0.00236221 0 -0.0011811 0 0 -177.749z"/>
  <path class="fil3" d="M1038.9 1118.89c0,-81.0249 32.9528,-154.488 86.1544,-207.69 53.2004,-53.2004 126.666,-86.152 207.691,-86.1532l0 177.749c-31.9961,0 -61.0182,13.024 -82.043,34.0488 -21.098,21.098 -34.167,50.126 -34.167,82.043l0.11811 0 0 0.00236221c0,31.9902 13.0252,61.0099 34.0512,82.0347 21.0236,21.0213 50.0445,34.0441 82.0406,34.0453l0 557.03 -26.9044 -55.4835 -235.705 -486.056c-10.1528,-20.1862 -18.0307,-41.5276 -23.2984,-63.6898 -5.18977,-21.8303 -7.9382,-44.5607 -7.9382,-67.8804z"/>
  <path class="fil2" d="M584.984 794.235l-26.9067 -55.4894 -119.321 -246.075c-5.6504,-11.2441 -10.0193,-23.074 -12.9236,-35.2925 -2.89488,-12.176 -4.42678,-24.8374 -4.42678,-37.8036 0,-45.1052 18.3449,-86.0032 47.9599,-115.617 29.615,-29.6138 70.513,-47.9587 115.618,-47.9587l0 72.7335c-24.0355,0.011811 -45.8351,9.79961 -61.63,25.5957 -15.8599,15.8599 -25.6843,37.6807 -25.6843,61.6737l0.0885827 0 0 0.00236221c0,24.0473 9.79135,45.8622 25.5969,61.6666 15.7949,15.7925 37.5933,25.5803 61.6288,25.5933l0 290.971z"/>
  <path class="fil4" d="M584.985 255.999l0.982678 0.00590552c44.7166,0.264567 85.2367,18.554 114.636,47.9528 29.6138,29.6138 47.9587,70.5119 47.9587,115.617 0,12.9673 -1.53425,25.624 -4.42796,37.7977 -2.90315,12.2197 -7.2756,24.0579 -12.9225,35.3221l-119.317 246.051 -26.7532 55.1705 -0.155906 0.32126 -0.0011811 -0.00236221 0 -290.971 0.046063 0 0.557481 -0.00354331c23.8311,-0.151181 45.4335,-9.90946 61.115,-25.5886 15.8043,-15.8055 25.5957,-37.6193 25.5957,-61.6678 0,-24.0543 -9.78898,-45.8717 -25.5945,-61.6772 -15.6236,-15.6236 -37.1221,-25.3677 -60.8469,-25.5898l-0.826772 -0.00472441 -0.0011811 0 -0.0448819 0 0 -72.7335 0.0011811 0z"/>
 </g>
</svg>
